<svg xmlns="http://www.w3.org/2000/svg" viewBox="0 0 4400 968"><path fill="#fff" fill-opacity=".29" d="M1943.6 227c-.2 0-1 .8-1.7 1.7-1.3 1.6-1.2 1.7.4.4.9-.7 1.7-1.5 1.7-1.7s-.2-.4-.4-.4m430 59.3c-.3-.4-.6.2-.5 1.3 0 1.1.3 1.4.6.6.3-.7.2-1.6-.1-1.9M1074.4 447.1c-1.1 0-1.4.3-.6.6.7.3 1.6.2 1.9-.1.4-.3-.2-.6-1.3-.5M3173.7 463c-.2 0-1.2 1-2.3 2.2l-1.9 2.3 2.3-1.9c1.2-1.1 2.2-2.1 2.2-2.3 0-.1-.2-.3-.3-.3m-5.1 5c-.2 0-1 .8-1.7 1.7-1.3 1.6-1.2 1.7.4.4.9-.7 1.7-1.5 1.7-1.7s-.2-.4-.4-.4m316.1 65.8c-.1-10.6-.2-2.2-.2 18.7s.1 29.6.2 19.3c.2-10.3.2-27.4 0-38M3261.4 561c-.2 0-.4.2-.4.4s.8 1 1.8 1.7c1.5 1.3 1.6 1.2.3-.4-.7-.9-1.5-1.7-1.7-1.7m117.2 20.3c-.3-.4-.6.2-.5 1.3 0 1.1.3 1.4.6.6.3-.7.2-1.6-.1-1.9m-1652 4c-.3-.4-.6.2-.5 1.3 0 1.1.3 1.4.6.6.3-.7.2-1.6-.1-1.9m287 4c-.3-.4-.6.2-.5 1.3 0 1.1.3 1.4.6.6.3-.7.2-1.6-.1-1.9m-935 41c-.3-.4-.6.2-.5 1.3 0 1.1.3 1.4.6.6.3-.7.2-1.6-.1-1.9m-414 25c-.3-.4-.6.2-.5 1.3 0 1.1.3 1.4.6.6.3-.7.2-1.6-.1-1.9m-35.9 5.9c-.3-.9-.5-.1-.5 1.8s.2 2.7.5 1.7c.2-.9.2-2.5 0-3.5M616.6 709c-.2 0-1 .8-1.7 1.7-1.3 1.6-1.2 1.7.4.4.9-.7 1.7-1.5 1.7-1.7s-.2-.4-.4-.4"/><path fill="#fff" fill-opacity=".49" d="M870.5 166.3c-2.2 0-3 .2-1.7.4 1.2.2 3 .2 4 0 .9-.3-.1-.5-2.3-.4m1021 0c-2.2 0-3 .2-1.7.4 1.2.2 3 .2 4 0 .9-.3-.1-.5-2.3-.4m372 0c-2.2 0-3 .2-1.7.4 1.2.2 3 .2 4 0 .9-.3-.1-.5-2.3-.4m114 0c-2.2 0-3 .2-1.7.4 1.2.2 3 .2 4 0 .9-.3-.1-.5-2.3-.4m111.5 0c-2.5 0-3.5.2-2.2.4 1.2.2 3.2.2 4.5 0 1.2-.2.2-.4-2.3-.4m-1623.3.7c-.2 0-1.4 1.2-2.8 2.7l-2.4 2.8 2.8-2.4c1.5-1.4 2.7-2.6 2.7-2.8q0-.3-.3-.3m1390.9 2c-.2 0-1 .8-1.7 1.7-1.3 1.6-1.2 1.7.4.4.9-.7 1.7-1.5 1.7-1.7s-.2-.4-.4-.4m1287.1 97.7c-.3-.6-.5.1-.5 1.8 0 1.6.2 2.2.5 1.2.2-.9.2-2.3 0-3m64 36.3c-.2 0-1.4 1.2-2.8 2.7l-2.4 2.8 2.8-2.4c1.5-1.4 2.7-2.6 2.7-2.8q0-.3-.3-.3m-664 66.3c-.1-8.7-.3-1.9-.3 15.2 0 17 .2 24.2.3 15.8.2-8.3.2-22.3 0-31m139.1 9.9-4.3.1 3.8.4 3.7.4V593l11.3-.2 11.2-.2-10.7-.3-10.8-.4V379zm-52.1 52c-.2-1.5-.4 0-.4 3.3s.2 4.5.4 2.7.2-4.5 0-6m-1689.2 19.1c-3.8 0-5.5.2-3.8.4 1.8.2 5 .2 7 0 2.1-.2.7-.4-3.2-.4m807 0c-3.8 0-5.5.2-3.8.4 1.8.2 5 .2 7 0 2.1-.2.7-.4-3.2-.4m763.1 25.7c-.2 0-1 .8-1.7 1.7-1.3 1.6-1.2 1.7.4.4.9-.7 1.7-1.5 1.7-1.7s-.2-.4-.4-.4m699 1.3c-.3-.4-.6.2-.5 1.3 0 1.1.3 1.4.6.6.3-.7.2-1.6-.1-1.9M2943.5 489c-.3 0-.5 23.2-.5 51.5V592l-35.7.3-35.8.2 36.3.3 36.2.2v-52c0-28.6-.2-52-.5-52M735.7 532.7c-.1-10.6-.2-1.7-.2 19.8 0 21.4.1 30.1.2 19.2.2-10.9.2-28.5 0-39M2045.6 514c-.2 0-1 .8-1.7 1.7-1.3 1.6-1.2 1.7.4.4.9-.7 1.7-1.5 1.7-1.7s-.2-.4-.4-.4m-1003 34.3c-.3-.4-.6.2-.5 1.3 0 1.1.3 1.4.6.6.3-.7.2-1.6-.1-1.9m648 36c-.3-.4-.6.2-.5 1.3 0 1.1.3 1.4.6.6.3-.7.2-1.6-.1-1.9m868.6 3.7c-.3 0 .3.9 1.3 2s2 2 2.3 2-.3-.9-1.3-2-2-2-2.3-2m1276 0c-.3 0 .3.9 1.3 2s2 2 2.3 2-.3-.9-1.3-2-2-2-2.3-2M816 592.4c-12.9 0-18.2.2-11.7.3 6.4.2 17 .2 23.5 0 6.4-.1 1.1-.3-11.8-.3m71.5 0c-7.7 0-11 .1-7.3.3s10 .2 14 0c4-.1 1-.3-6.7-.3m1063.5 0c-15.7 0-22.1.2-14.2.3 7.8.2 20.6.2 28.5 0 7.8-.1 1.4-.3-14.3-.3m1037 0c-5.2 0-7.4.1-4.7.3 2.6.2 6.8.2 9.5 0 2.6-.2.4-.3-4.8-.3m36.5 0c-14.8 0-20.8.2-13.2.3 7.6.2 19.8.2 27 0 7.3-.1 1.1-.3-13.8-.3m106 0c-12.1 0-17.2.2-11.3.3 5.9.2 15.8.2 22 0 6.2-.1 1.4-.3-10.7-.3m198 0c-7.7 0-11 .1-7.3.3s10 .2 14 0c4-.1 1-.3-6.7-.3m271 .1c-34.1 0-47.9.1-30.7.2 17.2.2 45.1.2 62 0 16.9-.1 2.8-.2-31.3-.2M664.7 634.7c-.2-3.4-.3-.6-.3 6.3s.1 9.7.3 6.2c.2-3.4.2-9 0-12.5m449-3c-.3-.6-.5-.1-.5 1.3s.2 1.9.5 1.2c.2-.6.2-1.8 0-2.5m612 26c-.3-.6-.5-.1-.5 1.3s.2 1.9.5 1.2c.2-.6.2-1.8 0-2.5m-141 72c-.3-.6-.5-.1-.5 1.3s.2 1.9.5 1.2c.2-.6.2-1.8 0-2.5"/><path fill="#fff" fill-opacity=".2" d="M874.7 202.7c-.1-20.4-.2-3.7-.2 37.3s.1 57.7.2 37.2c.2-20.4.2-54 0-74.5m1013-1.5c-.1-19.6-.2-3.5-.2 35.8s.1 55.4.2 35.7c.2-19.6.2-51.8 0-71.5m380-4.4c-.1-16.7-.2-3.1-.2 30.2s.1 46.9.2 30.3c.2-16.7.2-43.9 0-60.5m106-.6c-.1-16.3-.2-2.7-.2 30.3s.1 46.4.2 29.7c.2-16.7.2-43.7 0-60m168 22c-.2-1.5-.4 0-.4 3.3s.2 4.5.4 2.7.2-4.5 0-6M820.2 229c-.3 0 .5 1.1 1.8 2.5s2.6 2.5 2.8 2.5c.3 0-.5-1.1-1.8-2.5s-2.6-2.5-2.8-2.5m1120.4 1c-.2 0-1 .8-1.7 1.7-1.3 1.6-1.2 1.7.4.4.9-.7 1.7-1.5 1.7-1.7s-.2-.4-.4-.4m469.1 48.2c-.2-3.7-.3-.6-.3 6.8s.1 10.5.3 6.7c.2-3.7.2-9.7 0-13.5m-1571-1c-.2-2.6-.3-.2-.3 5.3s.1 7.6.3 4.7.2-7.4 0-10m1085-1.5c-.2-1.7-.4-.1-.4 3.8 0 3.8.2 5.3.4 3.2.2-2 .2-5.2 0-7m308 3c-.2-3.4-.3-.4-.3 6.8 0 7.1.1 9.9.3 6.2s.2-9.6 0-13m1481.9 45.6c-.3-.4-.6.2-.5 1.3 0 1.1.3 1.4.6.6.3-.7.2-1.6-.1-1.9m-1825.9 93.5c-.1-38.7-.2-7.1-.2 70.2s.1 108.9.2 70.3c.2-38.7.2-101.9 0-140.5m36-8.6c-.1-33.4-.2-5.8-.2 61.3s.1 94.4.2 60.7c.2-33.8.2-88.7 0-122m-1085 4c-.1-32.8-.2-5.9-.2 59.8s.1 92.6.2 59.7c.2-32.8.2-86.6 0-119.5m36 0c-.1-32.8-.2-5.9-.2 59.8s.1 92.6.2 59.7c.2-32.8.2-86.6 0-119.5m2204-34.2c-.2 0-1.6 1.5-3.3 3.2l-2.9 3.3 3.3-2.9c1.7-1.7 3.2-3.1 3.2-3.3q0-.3-.3-.3m-1929 78.7c-.1-24.3-.2-4.4-.2 44.3s.1 68.6.2 44.2c.2-24.3.2-64.1 0-88.5M3252.4 428c-.2 0-.4.2-.4.4s.8 1 1.8 1.7c1.5 1.3 1.6 1.2.3-.4-.7-.9-1.5-1.7-1.7-1.7m-2173.7 65.7c-.1-24.9-.2-4.3-.2 45.8 0 50 .1 70.4.2 45.2.2-25.2.2-66.2 0-91m2442-8.5c-.1-19.1-.2-3.2-.2 35.3s.1 54.1.2 34.7c.2-19.5.2-51 0-70m-1688 11.1c-.1-24.1-.2-4.7-.2 43.2 0 47.8.1 67.6.2 43.8.2-23.7.2-62.9 0-87M3176.6 460c-.2 0-1 .8-1.7 1.7-1.3 1.6-1.2 1.7.4.4.9-.7 1.7-1.5 1.7-1.7s-.2-.4-.4-.4m113.8 0c-.2 0-.4.2-.4.4s.8 1 1.8 1.7c1.5 1.3 1.6 1.2.3-.4-.7-.9-1.5-1.7-1.7-1.7m204.2 5c-.2 0-1 .8-1.7 1.7-1.3 1.6-1.2 1.7.4.4.9-.7 1.7-1.5 1.7-1.7s-.2-.4-.4-.4m-196.2 3c-.2 0-.4.2-.4.4s.8 1 1.8 1.7c1.5 1.3 1.6 1.2.3-.4-.7-.9-1.5-1.7-1.7-1.7M987 480.2c-1.4 0-1.9.2-1.2.5.6.2 1.8.2 2.5 0 .6-.3.1-.5-1.3-.5m731.6 36.8c-.2 0-1 .8-1.7 1.7-1.3 1.6-1.2 1.7.4.4.9-.7 1.7-1.5 1.7-1.7s-.2-.4-.4-.4m-762.9 1c-.2 0-1.2 1-2.3 2.2l-1.9 2.3 2.3-1.9c1.2-1.1 2.2-2.1 2.2-2.3 0-.1-.2-.3-.3-.3m2188.9 8.3c-.3-.4-.6.2-.5 1.3 0 1.1.3 1.4.6.6.3-.7.2-1.6-.1-1.9m178.1 1.4c-.3-.6-.5-.1-.5 1.3s.2 1.9.5 1.2c.2-.6.2-1.8 0-2.5m-957.6.3c-.6 0-1.3.4-1.6 1s.1.7.9.4c.9-.3 1.6-.8 1.6-1s-.4-.4-.9-.4M937.4 542c-.2 0-.4.2-.4.4s.8 1 1.8 1.7c1.5 1.3 1.6 1.2.3-.4-.7-.9-1.5-1.7-1.7-1.7m2477.3 41.7c-.3-.6-.5-.1-.5 1.3s.2 1.9.5 1.2c.2-.6.2-1.8 0-2.5m-2786 23.6c-.1-9.8-.2-1.8-.2 17.7s.1 27.5.2 17.8c.2-9.8.2-25.8 0-35.5m1603 14.9c-.3-.9-.5.1-.4 2.3 0 2.2.2 3 .4 1.7.2-1.2.2-3 0-4m178 0c-.3-.9-.5.1-.4 2.3 0 2.2.2 3 .4 1.7.2-1.2.2-3 0-4m-1367 7.5c-.3-.6-.5.1-.5 1.8 0 1.6.2 2.2.5 1.2.2-.9.2-2.3 0-3m-378.1 28.6c-.3-.4-.6.2-.5 1.3 0 1.1.3 1.4.6.6.3-.7.2-1.6-.1-1.9m-101.1 40c-2.2 0-3 .2-1.7.4 1.2.2 3 .2 4 0 .9-.3-.1-.5-2.3-.4m1061 0c-2.2 0-3 .2-1.7.4 1.2.2 3 .2 4 0 .9-.3-.1-.5-2.3-.4"/><path fill="#fff" fill-opacity=".4" d="M2267.6 289.3c-.3-.4-.6.2-.5 1.3 0 1.1.3 1.4.6.6.3-.7.2-1.6-.1-1.9m106 0c-.3-.4-.6.2-.5 1.3 0 1.1.3 1.4.6.6.3-.7.2-1.6-.1-1.9m-1535 60c-.3-.4-.6.2-.5 1.3 0 1.1.3 1.4.6.6.3-.7.2-1.6-.1-1.9m-75.1 101c-3.3 0-4.5.2-2.7.4s4.5.2 6 0 0-.4-3.3-.4m1061 0c-3.3 0-4.5.2-2.7.4s4.5.2 6 0 0-.4-3.3-.4m-475.8 44.4c-.1-24.3-.2-4.2-.2 44.8s.1 68.8.2 44.2c.2-24.7.2-64.7 0-89m2261.9-20.4c-.3-.4-.6.2-.5 1.3 0 1.1.3 1.4.6.6.3-.7.2-1.6-.1-1.9m-2617.9 35c-.1-15.3-.2-3.1-.2 27.2 0 30.2.1 42.8.2 27.8.2-14.9.2-39.7 0-55m30.5-.3c-.3 0 .5 1.1 1.8 2.5s2.6 2.5 2.8 2.5c.3 0-.5-1.1-1.8-2.5s-2.6-2.5-2.8-2.5m90.5 36.7c-.1-15.5-.2-2.6-.2 28.8 0 31.3.1 44 .2 28.2.2-15.9.2-41.5 0-57m-71 15.1c-.1-5.7-.3-1.3-.3 9.7s.2 15.6.3 10.3c.2-5.3.2-14.3 0-20m2159.9 3.2c-.2 0-1 .8-1.7 1.7-1.3 1.6-1.2 1.7.4.4.9-.7 1.7-1.5 1.7-1.7s-.2-.4-.4-.4m61.8 0c-.2 0-.4.2-.4.4s.8 1 1.8 1.7c1.5 1.3 1.6 1.2.3-.4-.7-.9-1.5-1.7-1.7-1.7m-1573.8 17.3c-.3-.4-.6.2-.5 1.3 0 1.1.3 1.4.6.6.3-.7.2-1.6-.1-1.9M3529.3 592c-5.1-.3-8.9-.1-8.4.3.4.4 4.6.7 9.2.5l8.4-.3zm-2828.8.4c-18.7 0-26.5.2-17.3.3 9.2.2 24.5.2 34 0 9.5-.1 2-.3-16.7-.3m81.5 0c-5.2 0-7.4.1-4.7.3 2.6.2 6.8.2 9.5 0 2.6-.2.4-.3-4.8-.3m146 0c-14.6 0-20.5.2-13.2.3 7.2.2 19.2.2 26.5 0 7.2-.1 1.3-.3-13.3-.3m89.5 0c-12.6 0-17.7.2-11.2.3 6.5.2 16.8.2 23 0 6.2-.1.9-.3-11.8-.3m143 0c-4.9 0-6.8.1-4.2.3s6.7.2 9 0 .2-.3-4.8-.3m601 0c-18.7 0-26.5.2-17.3.3 9.2.2 24.5.2 34 0 9.5-.1 2-.3-16.7-.3m1599 0c-9.3 0-13 .2-8.2.3 4.8.2 12.5.2 17 0 4.5-.1.6-.3-8.8-.3m89 .1c-19.2-.1-27.3.1-17.8.2 9.4.2 25.2.2 35 0 9.8-.1 2.1-.2-17.2-.2m-2370.8 41.2c-.3-.6-.5-.1-.5 1.3s.2 1.9.5 1.2c.2-.6.2-1.8 0-2.5m-450 33c-.3-.6-.5-.1-.5 1.3s.2 1.9.5 1.2c.2-.6.2-1.8 0-2.5m-30.3 67.4c-1.1 0-1.4.3-.6.6.7.3 1.6.2 1.9-.1.4-.3-.2-.6-1.3-.5"/><path fill="#fff" fill-opacity=".09" d="M2276.6 369c-.2 0-1 .8-1.7 1.7-1.3 1.6-1.2 1.7.4.4.9-.7 1.7-1.5 1.7-1.7s-.2-.4-.4-.4m46.8 28.1c-1.1 0-1.4.3-.6.6.7.3 1.6.2 1.9-.1.4-.3-.2-.6-1.3-.5M1138.6 414c-.2 0-1 .8-1.7 1.7-1.3 1.6-1.2 1.7.4.4.9-.7 1.7-1.5 1.7-1.7s-.2-.4-.4-.4m2088 2c-.2 0-1 .8-1.7 1.7-1.3 1.6-1.2 1.7.4.4.9-.7 1.7-1.5 1.7-1.7s-.2-.4-.4-.4m-12 12c-.2 0-1 .8-1.7 1.7-1.3 1.6-1.2 1.7.4.4.9-.7 1.7-1.5 1.7-1.7s-.2-.4-.4-.4m-932.9 10c-.2 0-1.6 1.5-3.3 3.2l-2.9 3.3 3.3-2.9c1.7-1.7 3.2-3.1 3.2-3.3q0-.3-.3-.3m-1164 7c-.2 0-1.2 1-2.3 2.2l-1.9 2.3 2.3-1.9c1.2-1.1 2.2-2.1 2.2-2.3 0-.1-.2-.3-.3-.3m2162.7 6c-.2 0-.4.2-.4.4s.8 1 1.8 1.7c1.5 1.3 1.6 1.2.3-.4-.7-.9-1.5-1.7-1.7-1.7m-1957.8 14c-.2 0-1 .8-1.7 1.7-1.3 1.6-1.2 1.7.4.4.9-.7 1.7-1.5 1.7-1.7s-.2-.4-.4-.4m2324 9.3c-.3-.4-.6.2-.5 1.3 0 1.1.3 1.4.6.6.3-.7.2-1.6-.1-1.9m-1925 39.7c-.2 0-1 .8-1.7 1.7-1.3 1.6-1.2 1.7.4.4.9-.7 1.7-1.5 1.7-1.7s-.2-.4-.4-.4m1688.1 0c-.2 0-1.2 1-2.3 2.2l-1.9 2.3 2.3-1.9c1.2-1.1 2.2-2.1 2.2-2.3 0-.1-.2-.3-.3-.3m-1613 19.7c-.1-10-.2-1.6-.2 18.8 0 20.3.1 28.5.2 18.2.2-10.4.2-27 0-37m1525.9-9.4c-.3-.4-.6.2-.5 1.3 0 1.1.3 1.4.6.6.3-.7.2-1.6-.1-1.9M2072.7 537c-.2 0-1.4 1.2-2.8 2.7l-2.4 2.8 2.8-2.4c1.5-1.4 2.7-2.6 2.7-2.8q0-.3-.3-.3m-866.1 44.3c-.3-.4-.6.2-.5 1.3 0 1.1.3 1.4.6.6.3-.7.2-1.6-.1-1.9m-541 2c-.3-.4-.6.2-.5 1.3 0 1.1.3 1.4.6.6.3-.7.2-1.6-.1-1.9m-36.9 3.4c-.3-.6-.5-.1-.5 1.3s.2 1.9.5 1.2c.2-.6.2-1.8 0-2.5m614 0c-.3-.6-.5-.1-.5 1.3s.2 1.9.5 1.2c.2-.6.2-1.8 0-2.5m-286 1c-.3-.6-.5-.1-.5 1.3s.2 1.9.5 1.2c.2-.6.2-1.8 0-2.5m2457.9-.4c-.3-.4-.6.2-.5 1.3 0 1.1.3 1.4.6.6.3-.7.2-1.6-.1-1.9M2249.7 605c-.2 0-1.2 1-2.3 2.2l-1.9 2.3 2.3-1.9c1.2-1.1 2.2-2.1 2.2-2.3 0-.1-.2-.3-.3-.3m-523 29.2c-.2-3.1-.3-.3-.3 6.3s.1 9.2.3 5.7c.2-3.4.2-8.8 0-12m-577.1-3.9c-.3-.4-.6.2-.5 1.3 0 1.1.3 1.4.6.6.3-.7.2-1.6-.1-1.9m-106.9 4.4c-.3-.6-.5.1-.5 1.8 0 1.6.2 2.2.5 1.2.2-.9.2-2.3 0-3M597 717.2c-1.9 0-2.7.2-1.7.5.9.2 2.5.2 3.5 0 .9-.3.1-.5-1.8-.5m1061.5 0c-1.6 0-2.2.2-1.2.5.9.2 2.3.2 3 0 .6-.3-.1-.5-1.8-.5m642.2 5.8c-.2 0-1.2 1-2.3 2.2l-1.9 2.3 2.3-1.9c1.2-1.1 2.2-2.1 2.2-2.3 0-.1-.2-.3-.3-.3"/><g fill="#fff" stroke-width="0"><path d="M870.1 167c-3.5 0-4.4.6-8.9 5.7-2.8 3.1-7.4 10-10.4 15.2-3.5 6.2-7.7 11.9-12.4 16.7-4.8 4.9-8.9 8-13.2 10l-6.2 2.9v5.2c0 4.5.4 5.5 2.5 6.9 1.4.9 4.5 4.6 6.9 8.3 2.4 3.6 5.1 8.4 6.1 10.6.9 2.2 2.3 7.3 3.1 11.3.8 4.1 1.4 12.7 1.4 19.2v11.7l6.3 1.3c3.4.6 8.1 2 10.5 3.1 2.4 1 6.2 3.3 8.4 5.1 2.2 1.7 5.3 5 6.9 7.1l2.9 4V167zm1021.8 0h-3.9v69.2l.1 69.3 2.1-3c1.3-1.7 3.8-4.5 5.8-6.4 1.9-1.8 6.3-4.7 9.7-6.3s8.7-3.2 11.7-3.5l5.6-.6V275c0-7.4.6-13.1 2-18.4 1.1-4.3 3.4-10.5 5.2-13.8 1.8-3.4 5.4-8.3 8-10.8 4.5-4.4 4.8-5.1 4.8-9.9 0-4.1-.4-5.3-1.7-5.7-1-.3-3.8-1.5-6.3-2.7s-7.7-5.3-11.5-9.2c-4.6-4.5-8.6-9.8-11.5-15-2.4-4.4-5.6-9.8-7.1-12s-4.2-5.5-5.9-7.3c-2.6-2.5-4.1-3.2-7.1-3.2m371.2 0c-3.2 0-4.5.7-7.8 4.2-2.1 2.4-5.3 6.3-7 8.8-1.6 2.5-4.5 7.4-6.3 11-2.1 4.3-5.8 9-10.5 13.7-4.8 4.7-9.4 8.1-13.4 10l-6.1 2.8v4.7c0 4.2.5 5.3 3.9 8.8 2.2 2.3 5.4 6.3 7.1 9 1.8 2.7 4.3 8.2 5.8 12.2 2.3 6.8 2.6 9.1 3.3 33.3.6 21.1 1.2 27.5 2.8 34 1.2 4.4 4.3 12.5 7 18 2.8 5.5 7.3 12.8 10.1 16.2 2.7 3.4 7.8 8.2 11.3 10.6 3.4 2.4 7.5 4.8 9 5.5 2.3 1 2.9.9 3.4-.3.3-.9 3.3-3.6 6.7-6s8.4-5.4 11.1-6.5c2.8-1.2 6.4-2.4 8.2-2.8l3.2-.7-9.9-7c-6.4-4.5-11.5-9-14.1-12.5-2.3-3-5.4-8.2-6.9-11.5s-3.6-8.9-4.6-12.5c-1.7-6-1.8-12.2-2.2-74.8l-.3-68.2z"/><path d="M2377.9 167h-3.9v63.9c0 52.6-.3 65.4-1.5 72.6-.9 4.7-2.9 12.1-4.5 16.3s-4.9 10.6-7.2 14.2-7.6 9.9-11.7 14c-4.9 4.9-9.7 8.6-13.5 10.4-4.5 2.2-8.2 3-15.9 3.7-5.5.5-12.9 1.8-16.4 3-3.5 1.1-9 3.9-12.3 6.1s-8 6.2-10.4 9c-2.5 2.9-5.8 7.9-7.5 11.2-1.6 3.4-3.5 8.6-4.1 11.8-.8 3.4-1.1 9.4-.8 15.5.4 7.7 1.1 11.1 3.2 15.7 1.4 3.3 3.1 6.6 3.8 7.3.8 1.1 2 .4 5.9-3.2 2.7-2.5 8.1-6.1 12.1-8s7.9-3.5 8.8-3.5c.8 0 2.1-.4 2.8-.9 1-.6.9-1.8-.7-5.8-1.4-3.6-1.7-5.9-1.2-8.4.4-1.9 1.3-4.4 1.9-5.5.6-1.2 2.7-3.5 4.6-5.2 2-1.7 5-3.3 6.8-3.6s6-.8 9.4-1.1c3.3-.3 8.5-1.5 11.5-2.6s8.4-3.6 12-5.5 10.1-6.3 14.5-9.8 10.9-9.5 14.4-13.3c3.6-3.7 8.9-10 11.7-13.8 2.9-3.9 7.3-11.1 9.7-16 2.4-5 5-11 5.7-13.5.6-2.5 1.6-6.3 2.1-8.5s1.3-15.5 1.7-29.5c.8-23.7 1-26 3.3-32.2 1.4-3.7 4.1-9.3 5.9-12.4 1.9-3.1 5.1-7.1 7.2-9 3.3-3 3.7-3.9 3.7-8.1v-4.8l-6.1-2.8c-4.1-1.9-8.6-5.3-13.3-10-5.2-5.2-8.7-9.9-12.6-16.9-2.9-5.4-7.6-12.3-10.3-15.3-4.3-4.9-5.3-5.5-8.8-5.5m111.7 0h-3.6v136.6l6-5.9c3.3-3.2 8.4-6.9 11.3-8.2 2.8-1.4 7.7-2.7 10.8-3.1l5.6-.6.6-11.2c.4-6.1 1.1-13.6 1.7-16.6s2.6-8.8 4.5-12.8c2.1-4.4 5.6-9.6 9-13.1 5-5.2 5.5-6.2 5.5-10.3v-4.4l-5.7-2.4c-3.9-1.6-8.1-4.7-13.5-9.8-5.5-5.2-9.1-9.8-12-15.1-2.3-4.2-5.4-9.4-6.9-11.6s-4.3-5.7-6.2-7.8c-2.8-3-4.2-3.7-7.1-3.7m485.9 81c-2.9 0-4.4.8-7.8 4.3-2.3 2.3-5.4 6-6.8 8.2s-4.5 7.2-6.7 11.2c-2.3 3.9-6.4 9.6-9.2 12.6-2.8 3.1-7.5 7.2-10.5 9.1-2.9 2-6.8 3.9-8.4 4.2-2.9.6-3.1.9-3.1 5.1 0 4 .6 5.1 4.9 9.8 2.6 3 6.2 7.8 7.8 10.7s3.7 7.3 4.6 9.8 2.1 8.4 2.7 13.1c.8 5.6 1 21.1.7 43.5-.3 28.8-.7 35.9-2.1 40.6-.9 3.2-2.6 7.9-3.7 10.5-1.1 2.7-4.9 9.1-8.4 14.3s-9.4 12.8-13.1 16.9c-3.7 4-16.5 15.8-28.4 26.1-12 10.4-23.7 21.2-26.2 24.2-2.5 2.9-5.8 7.3-7.5 9.8s-4.3 7-5.8 10-3.6 7.9-4.7 11c-1 3-2.6 8.9-3.4 13s-1.9 13.6-2.4 21-1 19.7-1 27.2V628h160v-35h-18V248zm-31.7 240c.1 0 .2 23.6.2 52.5V593h-72v-3.8c0-2 .6-7.8 1.4-12.7.7-5 2.3-11.6 3.4-14.8 1.2-3.2 3.2-7.8 4.6-10.2s4.5-6.5 6.8-9.3c2.4-2.7 13.8-13 25.4-22.9 16.1-13.8 22-19.6 25.5-24.6 2.4-3.7 4.5-6.7 4.7-6.7m651.5-221.7-51.3-.6v2.6c0 2.2 1.9 3.9 12.4 11.2 6.8 4.7 14.8 9.6 17.8 11 2.9 1.4 6.5 2.5 8.1 2.5 1.5 0 2.7.3 2.7.7-.1.5-.7 1.9-1.5 3.3s-1.4 4-1.5 5.8c0 1.8.6 4.5 1.4 6.1.8 1.5 3.3 4.4 5.5 6.4 2.3 2 4.7 3.7 5.5 3.7s2.8-2.4 4.4-5.3c1.7-3 5.1-7.2 7.6-9.4 2.6-2.3 6.6-4.6 9.3-5.4 3-.9 8.7-1.3 15.5-1.2 5.8.1 13.7.9 17.6 1.7 3.8.8 9.1 2.6 11.8 3.9 2.7 1.4 6.4 4 8.3 5.9 1.9 1.8 4.2 5.3 5.3 7.7 1.1 2.7 1.9 7 2 10.8.1 5.7-.4 7.4-4.5 15.6-2.5 5.1-8 14.2-12.3 20.2-4.2 6.1-10.8 15.7-14.7 21.5s-9.3 14.3-11.9 18.9c-2.7 4.6-6.6 12.5-8.7 17.5s-4.8 12-5.9 15.6-2.7 9.6-3.6 13.5c-.9 3.8-2 9.9-2.6 13.5-.5 3.6-1 12.9-1 20.8 0 7.8.7 18.7 1.5 24.1s3.1 14.8 5 20.7c2 6 5.4 14.5 7.6 18.9 2.3 4.4 6.4 11.4 9.2 15.5 2.9 4.1 10 12.3 16 18.2l10.8 10.8H3540v35h337v-3c0-1.7-.7-4.2-1.7-5.6-.9-1.4-4.1-4.4-7.2-6.8-3.1-2.3-9.2-6.2-13.6-8.6s-10.8-7.1-14.2-10.3c-3.5-3.3-7.6-8.1-9.3-10.7-1.6-2.5-3.3-6.1-3.6-7.8-.6-3-.9-3.2-5.2-3.2-4.2 0-5 .5-10.8 6-3.5 3.3-8.7 7.1-11.6 8.5-2.9 1.3-8.7 3-12.8 3.9-4.1.8-11.6 1.8-16.6 2.2-5.3.4-13.2.2-19.2-.5-5.6-.7-13.9-2.3-18.4-3.6-4.4-1.4-12.1-4.5-17-6.9-4.9-2.5-12.6-7.1-17.1-10.3s-12.7-10.4-18.4-16c-5.6-5.6-12.9-13.8-16.1-18.1s-7.7-11.7-10-16.3c-2.2-4.6-5.1-12-6.3-16.4-1.7-6.3-2.2-10.6-2.1-20.5 0-8.6.7-15.7 2.2-22.9 1.1-5.7 3-13.1 4.2-16.5 1.1-3.3 3.7-9.7 5.8-14.1 2-4.5 12.5-21.1 23.2-37.1 10.8-15.9 20.9-31.6 22.6-34.9 1.6-3.3 4.2-9.8 5.8-14.5 2.5-7.4 2.9-9.9 2.8-19.5 0-6.7-.7-13.4-1.7-17.2-.9-3.4-3-9-4.7-12.4-1.7-3.3-5.1-8-7.5-10.4-2.4-2.3-7.7-5.8-11.7-7.8s-11.1-4.5-15.8-5.6-12.1-2.5-16.5-3.1-31.1-1.4-59.2-1.7M1932 296.6c-3.6-.3-8.5-.1-11 .4-2.4.5-6.7 2.1-9.6 3.5-2.8 1.4-6.4 3.8-7.9 5.3s-4.2 4.9-6 7.7c-1.8 2.7-4.1 7.8-5.3 11.1-1.2 3.4-2.6 9.9-3.2 14.5-.6 5.5-1 56.8-1 148.6V628h90v-35h-55l.2-127.8c.3-120.1.4-128 2.1-132.3 1-2.5 3.1-5.9 4.7-7.4 2-1.9 4.3-2.9 7.4-3.2 3.6-.4 5.7 0 10 2.1 3.3 1.6 7.8 5.2 11.5 9.1 3.3 3.6 6.5 6.5 7 6.5s1.3-.4 1.6-1c.3-.5-.7-4.9-2.4-9.8-1.6-4.8-4.5-11.5-6.5-14.8-1.9-3.4-5.4-7.8-7.7-9.9-2.3-2-6-4.6-8.3-5.6s-7.1-2-10.6-2.3m597 0c-3.8-.3-8.6 0-11.5.7-2.7.7-7.4 2.6-10.4 4.2-2.9 1.6-6.8 4.8-8.6 7s-4.4 6.3-5.9 9c-1.4 2.8-3.5 8.6-4.6 12.9-2 7.8-2 10.7-2 152.8V628h115v-3.1c0-1.9-1-4.3-2.6-6.2-1.5-1.8-5-4.9-7.8-7s-8.7-5.8-13.2-8.2c-5.7-3.1-10.1-6.6-15.1-11.8-3.8-4-7.9-9.4-9.1-11.8-1.2-2.5-2.2-5.3-2.2-6.2 0-1.4-1-1.7-5-1.7-4.7 0-5 .2-8.1 4.7-1.8 2.7-4.8 6.5-6.8 8.6s-4.8 4.5-6.3 5.3-3.2 1.4-3.8 1.4c-.7 0-1-36.6-.8-126.8l.3-126.7 2.5-6c1.7-4.1 3.6-6.6 5.9-8.2 1.9-1.3 4.8-2.3 6.6-2.3s4.7.5 6.6 1.2c1.9.6 5.2 2.3 7.4 3.8s5.8 5 8 7.8 4.6 5.1 5.3 5.2c.7 0 1.5-.6 1.8-1.4.3-.7-.6-4.8-2-9-1.5-4.2-4-10.4-5.6-13.7-1.7-3.3-5-7.8-7.3-10.1s-6.4-5.1-9.2-6.4-7.9-2.5-11.5-2.8m-1694.9 5.7c-5.6-.2-9.9.2-12.2 1.1-2 .8-5.5 2.6-7.8 4-2.2 1.5-5.5 4.5-7.2 6.9-1.8 2.3-4.6 7.3-6.4 11.2-1.8 3.8-4 9.6-4.8 12.7-1.3 4.9-1.3 5.9-.1 6.9.8.7 1.6 1 1.7.8s2.4-3 5.1-6.2 7.1-7.1 10-8.7c4-2.4 6.3-3 11-3 5.2 0 6.1.3 9.1 3.3 1.8 1.8 3.9 5.1 4.6 7.2 1.1 3.2 1.4 27.9 1.7 129.2L839 593h-46v35h107v-35h-25.9l-.4-125.3c-.3-115.4-.4-125.7-2-131.6-1-3.6-3.1-9.2-4.8-12.6-1.6-3.4-4.8-8-7-10.3-2.3-2.3-7-5.6-10.6-7.4-5.6-2.7-7.8-3.2-15.2-3.5"/><path d="M2889.4 323.6c-2.7-.3-6.6-.1-8.7.4-2.1.6-5.1 1.6-6.6 2.5-1.6.8-4.2 2.8-5.9 4.4-1.6 1.6-3.9 5.1-5.1 7.7-1.5 3.2-2.2 6.5-2.2 10.8 0 3.9.7 7.8 1.9 10.7 1.1 2.5 3.4 6 5.2 7.7 1.8 1.8 4.9 4.1 7 5.2 2 1 6 2.2 8.7 2.6 3.4.4 6.8.1 10.5-1 3.4-1 7.2-3.1 10.1-5.6 3.2-2.8 5.2-5.7 6.6-9.6 1.2-3 2.1-7.4 2.1-9.8 0-2.3-.7-6.3-1.6-8.8-.8-2.5-3-6.4-4.9-8.6s-5.4-4.9-7.9-6c-2.4-1.2-6.6-2.3-9.2-2.6m192.8 56.4c-2.9 0-4.4.7-6.3 2.7-1.4 1.6-3.9 4.6-5.6 6.8-1.6 2.2-5.5 8.3-8.5 13.5-3.9 6.7-7.8 11.6-12.6 16.1-4.4 4.2-8.9 7.4-12.6 8.9l-5.6 2.4v4.4c0 3.8.6 5.1 4.9 10 2.7 3.1 6.5 8.9 8.5 12.8 1.9 3.9 4.2 9.8 5 13.1 1.4 5.2 1.6 14.6 1.6 64.2V593h-53v35h75.8c47.4 0 79.1-.4 84.7-1.1 5-.6 12.4-2.2 16.5-3.6s9.8-3.7 12.5-5c2.8-1.4 9.5-5.7 15-9.6s14.8-11.3 20.7-16.4l10.7-9.3 6.8 6.1c3.7 3.4 11 9.5 16.1 13.6s12.5 9.3 16.5 11.7c3.9 2.3 10.4 5.5 14.2 7.1 3.9 1.5 9.7 3.4 13 4.2 3.3.7 14 1.6 23.7 2l17.8.6.3-16.9.3-16.9.2 16.7.2 16.8h196v-35h-19V451h-14l-2.1 4.1c-1.1 2.3-4.2 6.3-6.8 8.9s-6.8 6-9.2 7.6c-2.4 1.5-14.3 7.3-26.4 12.9-12.1 5.5-25.2 12-29.1 14.2-3.9 2.3-9.8 6.2-13.1 8.7-3.4 2.6-9.7 8.5-14.2 13.2-4.4 4.7-9.8 11.5-12 15.2s-5.4 10.2-7.1 14.5c-1.7 4.4-3.9 13.1-5 19.5-1.1 6.5-2 14.3-2 17.4v5.8l-17.7.2c-9.8.2-26.1 0-36.3-.3-13.7-.5-19.8-1.1-23.5-2.4-2.7-.9-7.9-3.4-11.5-5.5s-9.4-6.1-13-9c-3.6-2.8-9.2-7.7-12.4-10.7l-6-5.6 3-2.4c1.6-1.3 7.4-4.5 12.9-7.2s16.1-7.2 23.5-10.1 15.8-6.2 18.7-7.3l5.2-2-.5-6.1c-.3-3.4-1.2-9.5-2-13.6-.9-4.1-2.9-10.9-4.5-15-1.6-4.2-5.2-11.1-8-15.4-2.7-4.3-8.6-11.4-13-15.7-4.3-4.2-14.7-13.2-23-20-8.3-6.7-18.1-15.1-21.8-18.8-3.7-3.6-8.7-8.9-11.2-11.8l-4.4-5.2-6.5 7.6c-3.6 4.2-11.2 11.7-17.1 16.7-5.8 5-15.4 13.1-21.5 18-6 5-14.1 12.2-18.1 16.2-3.9 4-9.2 10.8-11.7 15-2.6 4.2-5.6 9.9-6.7 12.8-1 2.8-2.8 8.7-3.8 13.1-1.1 4.4-2.1 11.1-2.3 15-.3 6.9-.3 7 2.7 8.4 1.7.8 6.4 2.7 10.5 4.2 4.1 1.4 11.2 4.1 15.8 5.9 4.6 1.9 13.8 6.1 20.5 9.4 6.7 3.4 12.3 6.6 12.5 7.3.2.6-2.5 3.9-6 7.2-3.5 3.2-9.4 8.4-13.3 11.5-3.8 3.1-10 7.2-13.6 9.1s-9.2 4.1-12.3 4.9c-4.3 1.2-11.9 1.6-29.9 1.6-13.3 0-29.3.1-35.4 0H3086V380zm151.5 77.2c.7.2 7.9 5.7 16.1 12.3 8.1 6.6 17.7 14.9 21.3 18.5s8 8.6 9.7 11.2c1.8 2.6 3.2 5.5 3.2 6.5 0 1.4-3.2 3.3-12.7 7.8-7 3.3-18.3 9.2-25.2 13.2-6.8 4-12.5 7.3-12.7 7.3s-5.2-2.9-11.3-6.4c-6.1-3.6-17-9.4-24.4-13-7.3-3.6-13.9-6.6-14.5-6.6-.7 0-1.2-.6-1.2-1.3 0-.8 2.2-4.5 4.9-8.4 2.7-3.8 8.5-10.2 12.8-14 4.3-3.9 13.4-11.7 20.3-17.2 6.9-5.6 13.1-10 13.7-9.9m250.1 54.9c.9-.1 1.2 8.6 1.2 40.4V593h-35.4c-19.5 0-35.7-.3-35.9-.8-.2-.4-.1-4.5.3-9.2.5-4.9 1.9-11.7 3.4-16 1.4-4.1 4.4-10.4 6.6-14 2.1-3.7 6-9 8.6-11.9 2.6-2.8 7.2-7.1 10.3-9.4 3.1-2.4 7.2-5.2 9.2-6.4 1.9-1.1 7.3-3.6 12-5.6 4.6-2 10.7-4.5 13.4-5.6 2.8-1 5.6-1.9 6.3-2m-375.1 90.1c.2 4.2.2 11.4 0 16-.1 4.6-.3 1.1-.3-7.7s.2-12.5.3-8.3M2367 390.7l-1.7-2.8-4.7 4c-2.6 2.1-7.3 5.1-10.3 6.6s-7.7 3.3-10.4 4.1c-4.9 1.5-4.9 1.5-3.5 4.2.7 1.5 1.6 4 2 5.5s.2 4.6-.4 6.8-2.7 5.8-4.6 7.9c-2 2.1-5 4.3-6.7 4.9-1.8.5-6.4 1.2-10.4 1.5s-10.2 1.7-13.9 3c-3.7 1.4-9.1 4.1-12.1 6.2s-7.4 6-9.8 8.7c-2.4 2.8-5.7 7.8-7.3 11.1-1.6 3.4-3.5 8.5-4.2 11.5-.8 3.3-1.1 9-.8 15 .4 6.4 1.3 11.4 2.7 15.1 1.2 3 2.5 6.1 3 6.9.7 1.2 2 .5 6.1-3.2 2.9-2.6 8.1-6.1 11.6-7.8 3.6-1.7 8.1-3.3 10-3.6 2.7-.5 3.4-.9 2.8-2.2-.3-.9-1-3.1-1.4-4.9-.4-1.7-.4-4.7 0-6.6.4-1.8 1.5-4.7 2.5-6.3.9-1.6 3.2-3.9 5.1-5.2 2.5-1.8 5.6-2.6 12.1-3.2 4.9-.5 11.6-1.8 15.1-3 3.4-1.1 8.9-3.9 12.2-6.1s8-6.2 10.4-9c2.5-2.9 5.8-7.9 7.4-11.2 1.6-3.4 3.5-8.5 4.2-11.5.8-3.3 1.1-9 .8-15-.3-5.9-1.2-11.3-2.4-14.1-1-2.5-2.5-5.8-3.4-7.3m522.4 6.9c-2.7-.3-6.6-.1-8.7.4-2.1.6-5.1 1.6-6.6 2.5-1.6.8-4.2 2.8-5.9 4.4-1.6 1.6-3.9 5.1-5.1 7.7-1.6 3.2-2.2 6.5-2.2 11 0 4 .7 7.9 1.9 10.6 1 2.4 3.4 5.8 5.2 7.6s4.9 4.1 7 5.2c2 1 6 2.2 8.7 2.6 3.4.4 6.8.1 10.4-1 3.1-.9 7.3-3.1 9.7-5.2 2.4-2 5.2-5.4 6.3-7.7 1.2-2.2 2.4-6.6 2.6-9.7.4-3.9 0-7.3-1.1-10.7-.9-2.8-3.2-6.8-5.1-9s-5.4-5-7.9-6.1c-2.4-1.2-6.6-2.3-9.2-2.6m-1744.2 14.6c-2.4-.3-3.8.7-8.5 5.8-3.1 3.3-7.3 9.1-9.4 12.8-2 3.7-5.1 9-6.9 11.7-1.8 2.8-5.5 7.1-8.4 9.5-2.8 2.5-7.3 5.7-9.8 7.2-2.6 1.5-5.5 2.8-6.4 2.8-1.5 0-1.8.9-1.8 5.1 0 4.8.4 5.5 5.1 10.6 2.7 3.1 6.1 7.8 7.5 10.6 1.4 2.7 3.5 7.7 4.7 11.1 2.1 6 2.2 7.4 2.5 72.8.2 56.5 0 67.7-1.2 73.9-.9 4-2.7 9-4.1 11.1s-4.1 4.4-6.1 5.3c-2 .8-4.9 1.5-6.5 1.5-1.5 0-4-.5-5.6-1.1-1.5-.6-3.8-2-5-3.1-1.3-1.2-3.3-4.6-4.5-7.7l-2.3-5.6-.5-99c-.5-94.9-.6-99-2.3-99.3-1-.2-2.9-.1-4.3.2-1.4.4-4.8 3.7-8.1 8.1-3.2 4.1-8 11.3-10.8 16.1-3.5 6-7.1 10.6-11.9 15-4.1 3.7-9.2 7.3-12.3 8.6l-5.3 2.2v4.9c0 4.5.4 5.4 4.9 10.3 2.7 2.9 6.2 8.1 7.9 11.6s3.9 8.5 4.9 11.3c1.5 4.2 1.8 9.2 2.1 30.8l.3 25.7-25.3-.2-25.3-.3-.5-55.5-.5-55.5-2.7-.3c-1.5-.2-3.6.2-4.7.7-1.1.6-4 3.7-6.4 6.9-2.3 3.1-7 10-10.2 15.2-3.3 5.3-8.7 12.2-12.3 15.6-3.6 3.5-8.9 7.4-12.3 9-5.9 2.8-5.9 2.8-5.9 7.2 0 3.7.6 5.1 4.1 9 2.2 2.6 5.7 7.6 7.7 11.1 2 3.6 4.4 8.8 5.3 11.6s2.2 8.9 2.8 13.7c.6 4.7.9 9.3.5 10.2-.5 1.4-3.6 1.6-28.5 1.6H901v35h141.8l.6 7.7c.4 4.3 1.3 11.6 2.1 16.3.7 4.7 1.8 10.2 2.4 12.4.5 2.1 2.3 6.7 4.1 10.2 1.7 3.4 5 8.2 7.3 10.6s6.5 5.5 9.3 7 7.7 3.4 10.9 4.3c3.3.8 9.8 1.5 14.5 1.5s11.4-.5 15-1c3.6-.6 9.3-2.4 12.6-4 3.4-1.7 8.2-5.1 10.7-7.7s5.8-6.8 7.2-9.4 3.4-7.6 4.6-11.1c1.1-3.4 2.4-9.2 2.9-12.8s1-9.7 1-13.7c0-3.9.3-7.8.6-8.7.5-1.3 2.4-1.6 10.9-1.6 7.3 0 10.5-.4 10.8-1.3q.6-1.35.6 0c.1 1 18.5 1.3 88.6 1.3h88.5V451h-14l-2 4c-1.1 2.2-3.4 5.6-5.2 7.5-1.7 2-5.9 5.5-9.2 7.9-3.4 2.3-9.2 5.6-13.1 7.4-3.8 1.7-12.9 5.7-20.1 9s-16.2 7.7-20 9.8-9.5 5.5-12.8 7.7c-3.2 2.2-9.2 7.2-13.4 11.1-4.1 3.9-9.9 10.2-12.7 14.1-2.9 3.8-6.2 9-7.5 11.5-1.2 2.4-3.1 6.9-4.2 10-1 3-2.8 9.5-3.9 14.5-1.1 4.9-2.3 13.2-2.6 18.2l-.6 9.3h-17.8c-13.2 0-17.9.3-18.2 1.2q-.6 1.5-.6 0c-.1-.9-2.8-1.2-10.1-1.2-8.8 0-10-.2-11-2-.7-1.3-1-30.3-1-90.2l.1-88.3zm167.3 100.2c.6.2 1 14.4 1 40.2v39.9l-35.7.3-35.8.2v-5.5c0-3.1.7-9.1 1.6-13.3.9-4.4 3.3-11.2 5.6-15.7 2.2-4.4 5.6-10.1 7.4-12.7 1.9-2.5 6.1-7.1 9.4-10.2 3.3-3 9.1-7.2 12.8-9.3s12.6-6.1 19.7-9c7.2-2.9 13.5-5.1 14-4.9M763.7 451c-3.6 0-6.8.5-7.5 1.2s-1.2 1.6-1.2 2.1c0 .4-1.5 2.8-3.4 5.3-1.9 2.4-5.6 6.2-8.2 8.5-2.7 2.2-10.3 6.6-16.9 9.9-6.6 3.2-16 7.5-21 9.5-4.9 2.1-12.8 5.8-17.5 8.3s-11.4 6.5-15 9.1c-3.5 2.5-10.1 8.2-14.5 12.6-4.5 4.5-9.6 10.2-11.4 12.8s-4.8 8-6.8 11.9c-1.9 3.9-4.3 9.6-5.3 12.7s-2.3 8.1-2.9 11.1-1.5 10.4-2.1 16.5c-.5 6-1 29.2-1 51.5 0 30.8-.3 42.4-1.4 48.5-.8 4.4-2.4 10.5-3.4 13.7-1.1 3.1-2.8 6.9-3.8 8.5-1 1.5-3.1 4.3-4.8 6.1-1.7 1.9-4.9 4.3-7.1 5.4-3.1 1.6-5.8 2.1-12.2 2-4.8 0-10.2-.7-13.2-1.7-3.2-1-6.2-3-8.4-5.4-1.9-2.1-4.1-5.5-4.8-7.4-1-2.9-1.9-3.7-4.6-4.2-1.9-.3-4.2-.3-5.2 0-1.1.3-2.1 1.9-2.5 3.8-.3 1.8-2 5-3.8 7.1-1.8 2.2-5.8 5.6-9 7.6-3.2 2.1-9.2 5-13.3 6.5-7.4 2.7-7.5 2.8-7.5 6.2v3.5l43.3-.5c40.7-.4 43.6-.6 50.7-2.7 4.1-1.2 10.4-3.7 14-5.6s8.1-4.9 10-6.6c2-1.8 5-5.2 6.8-7.5 1.8-2.2 4.5-7 6.2-10.5 1.6-3.4 3.9-10.1 5.1-14.8 1.1-4.7 2.5-13.9 3-20.5.4-6.6.9-17.7.9-24.7V628l63.8-.2 63.7-.3.3-17.3.2-17.2h-10.4c-8.5 0-10.5-.3-11-1.6-.3-.9-.6-32.8-.6-71V451zM734 512.4c1.3.1 1.5 5.3 1.5 40.1v40h-71l.3-7.2c.1-4 .8-9.6 1.6-12.6s2.5-7.8 3.7-10.8c1.3-3 3.4-7.2 4.6-9.4 1.2-2.3 4.6-6.8 7.5-10.2 2.9-3.3 6.7-7.2 8.3-8.5 1.7-1.4 4.8-3.6 7-5s6.9-4 10.5-5.9c3.5-1.9 10.5-5 15.5-7.1 4.9-2 9.7-3.5 10.5-3.4M1825.3 451l-6.8.1-4 6.2c-2.3 3.4-6.8 8.4-10 11.1-3.3 2.6-8.7 6.1-12 7.6s-9.1 4.2-13 6c-3.8 1.8-9.1 4.1-11.7 5.1s-8.9 3.9-14 6.5c-5.1 2.5-12.4 6.7-16.3 9.2-3.8 2.6-11.1 8.6-16.2 13.5-5 4.8-11.1 11.8-13.6 15.5-2.4 3.7-5.3 8.5-6.4 10.7s-3 6.7-4.1 10c-1.2 3.3-2.9 9.1-3.7 13-1.3 5.7-1.8 17.1-2.5 59.5-.6 42.4-1.1 53.9-2.4 60-.9 4.1-2.1 8.8-2.7 10.5-.6 1.6-2.3 5.2-3.6 8-1.4 2.7-3.5 6.1-4.7 7.3-1.2 1.3-4.1 3.5-6.4 4.9-3.8 2.2-5.6 2.6-12.7 2.6-4.6 0-10.4-.6-12.9-1.3s-6.3-2.8-8.5-4.6c-2.1-1.9-4.7-5.4-5.7-7.9-1.6-3.8-2.4-4.6-5.3-5.1-1.9-.4-4.1-.3-4.9.2-.7.5-2 2.7-2.7 4.8-.8 2.1-3.5 6-6 8.6-2.6 2.7-7.5 6.1-10.9 7.8-3.3 1.6-8.5 3.7-11.3 4.6-5.1 1.7-5.3 1.9-5.3 5.3v3.5l43.3-.5c40.7-.4 43.6-.6 50.7-2.7 4.1-1.2 9.1-2.9 11-3.8 1.9-.8 6.1-3.3 9.3-5.4 3.1-2.2 7.6-6.2 9.8-9 2.2-2.9 5.1-7.2 6.4-9.7 1.2-2.5 3.3-7.8 4.5-11.6 1.2-3.9 2.6-9.7 3.2-13s1.3-15.9 1.7-28l.6-22 53-.5 53-.5.3-88.3.2-88.2zm-30 61.1c1.6-.1 1.7 2.5 1.7 40.4V593h-71v-6.8c.1-3.7.7-9.2 1.4-12.2s2.7-8.7 4.3-12.7c1.7-4 5.1-10.1 7.7-13.7 2.5-3.5 7.3-8.9 10.8-12 3.4-3.1 9.6-7.5 13.7-9.8 4.2-2.3 12.6-6.3 18.6-8.9 6.1-2.6 11.8-4.8 12.8-4.8m352.9-61.1c-6.8 0-6.8 0-8.5 3.5-.9 1.9-3.3 5.3-5.4 7.6s-6.2 5.9-9 8.1c-2.9 2.1-15.1 8.3-27 13.7-12 5.4-24.6 11.5-28 13.4-3.5 2-8.9 5.3-12 7.4-3.2 2.1-9.7 7.6-14.4 12.3s-10.4 11.2-12.6 14.5-5.2 8.2-6.5 11c-1.4 2.7-3.7 8.6-5.1 13-1.4 4.5-3 11.6-3.6 15.9-.6 4.2-1.1 9.8-1.1 12.4s-.3 5.7-.6 6.9c-.6 2.3-.8 2.3-18 2.3H1979v35h176V451zm-28.4 61.1c1-.1 1.2 8.3 1 40.1l-.3 40.3-35.9.3-35.9.2.6-8.2c.3-4.6 1.6-11.5 2.8-15.3 1.2-3.9 3.2-9.3 4.6-12 1.4-2.8 5-8.2 8-12.2 2.9-3.9 8.2-9.4 11.6-12.2s9.8-6.9 14.2-9.1 12.5-5.7 18-7.9 10.6-4 11.3-4m248.1-47.9-2.4-5.1-4.5 4c-2.5 2.2-8 5.8-12.4 7.9-4.3 2.2-8.9 4-10.2 4s-2.4.3-2.4.7c0 .5.7 2.7 1.5 5 .9 2.5 1.2 5.6.8 7.5-.3 1.8-1.2 4.5-1.9 5.9s-2.9 4-4.8 5.7c-2 1.7-5 3.3-6.8 3.6s-6 .8-9.3 1.1-8.8 1.5-12.3 2.6c-3.4 1.1-8.9 3.9-12.2 6.1s-8 6.2-10.4 9-5.6 7.4-7.1 10.3c-1.4 2.9-3.3 7.7-4 10.6-.8 3-1.5 9.2-1.5 13.9s-.5 11.5-1 15.2c-.5 3.6-1.9 9-3 12-1.1 2.9-3.7 7.9-5.8 11.2-2.2 3.2-6.5 8.4-9.6 11.6-3.2 3.2-8.2 7.5-11.1 9.6-4.9 3.5-5.5 4.3-5.5 7.6v3.8h36v4.3c0 2.3.8 7.3 1.9 10.9 1 3.7 3.3 9.3 5.2 12.4s6 8.1 9.2 11c3.3 3 8.5 6.8 11.8 8.4 3.2 1.7 8.5 3.7 11.6 4.5s8.7 1.5 12.3 1.5 9.4-.7 12.9-1.5c3.5-.9 9.1-3 12.5-4.8 3.3-1.7 8.9-6.1 12.6-9.7 4-4 7.6-8.8 9.4-12.5 1.6-3.3 3.5-8.3 4.2-11 .8-2.8 1.4-6.9 1.4-9.3V628h36v-3.8c0-3.2-.6-4.1-4.2-6.7-2.3-1.6-7.2-5.8-10.9-9.2-3.7-3.5-8.6-9.2-10.9-12.8-2.3-3.5-5.3-9.5-6.6-13.4-1.9-5.5-2.6-10.3-3.3-22.3-.7-11.4-1.4-16.7-2.9-20.6-1.1-2.9-2.8-6.5-3.7-7.9l-1.7-2.5-3.6 3.5c-2.1 1.9-5.9 4.9-8.6 6.6s-7.7 4-11.2 5.1l-6.4 2.2 1.8 3.1c1.5 2.8 1.7 7.3 2 40.7.2 25.1-.1 39-.8 41.9-.6 2.5-2 5.7-3.1 7.3-1.2 1.6-3.8 3.7-5.9 4.8-2.5 1.3-5.9 2-9.3 2-4 0-6.3-.6-8.8-2.3-1.8-1.2-4.3-3.7-5.6-5.5-1.2-1.8-2.5-5.6-2.8-8.5-.4-2.9-.5-21.4-.3-41.2.3-31.6.5-36.4 2-39.1.9-1.7 3.3-4.5 5.2-6.2 2-1.7 5-3.3 6.8-3.6s6-.8 9.3-1.1 8.8-1.5 12.3-2.6c3.4-1.1 8.9-3.9 12.2-6.1s8-6.2 10.4-9 5.6-7.4 7.1-10.3c1.4-2.9 3.3-7.7 4-10.6.8-3 1.5-8.8 1.5-12.9s-.6-9.8-1.4-12.6c-.7-2.8-2.4-7.4-3.7-10.2m692.9 200.4c-2.9-.3-6.2-.3-7.3 0s-3.3 1-5 1.6c-1.6.7-4.6 2.4-6.6 3.9-1.9 1.5-4.8 5.1-6.4 8.1-2.6 4.5-3 6.4-2.9 12.3q0 7.05 1.8 10.5c1 1.9 2.9 4.9 4.1 6.5 1.2 1.7 4.7 4.4 7.6 6 4.5 2.4 6.5 2.9 12.4 2.9 5.8 0 7.9-.5 12.3-2.9 3-1.6 6.6-4.5 8.1-6.4 1.5-2 3.2-4.8 3.8-6.2.6-1.5 1.4-4.7 1.8-7.2.4-2.7.2-6.7-.5-9.7s-2.8-7.1-5-9.9c-2.3-2.8-5.7-5.7-8.4-6.9-2.5-1.2-6.9-2.4-9.8-2.6m584.8-.5c-1.7.1-4.4.5-6.1.9-1.6.4-4.2 1.2-5.7 1.8-1.4.6-4.3 2.8-6.3 4.8-2.1 2-4.7 5.8-5.8 8.3-1.3 3-2 6.7-2 10.6s.7 7.6 2 10.5c1.1 2.5 3.5 6 5.3 7.8s5.1 4.2 7.4 5.4c3 1.5 6 2.1 11.1 2.2 5.9 0 7.8-.4 12.4-2.9 3-1.7 6.5-4.4 7.9-6.2 1.4-1.7 3.4-5.1 4.3-7.5 1-2.4 1.8-6.4 1.8-8.9.1-2.5-.7-6.7-1.6-9.4-1-3.1-3.4-6.7-6.3-9.6-3.4-3.4-6.3-5.2-10.1-6.3-2.9-.9-6.6-1.6-8.3-1.5m-1290.3 36c-.5 0-5.5 2.4-11.3 5.3-7.7 4-12.4 5.7-17.8 6.5-4 .6-10.2 2.4-13.7 4-3.6 1.7-8.4 4.9-11 7.6-2.6 2.5-5.9 7.2-7.3 10.3-2.1 4.4-2.8 7.8-3.2 15.2l-.5 9.5-4.3.3-4.2.3-5.5 10.9c-3 6.1-5.5 11.2-5.5 11.5s19.5.5 43.3.5h43.2l5.7-11.4 5.6-11.3-16.7-.6c-11.3-.3-17.9-1-20.3-2-1.9-.8-4.4-2.7-5.6-4.2-1.3-1.6-2.2-4.2-2.2-6.3 0-2.6.9-4.3 3.8-7.2 2.1-2.1 5.5-4.3 7.7-4.9s7.7-1.1 12.3-1.1h8.2v-16.5c0-9.1-.3-16.5-.7-16.4m705.5 35.5c-2.9-.3-6.2-.3-7.3 0s-3.3 1-5 1.6c-1.6.7-4.6 2.4-6.6 3.9-1.9 1.5-4.8 5.1-6.4 8.1-2.6 4.5-3 6.4-2.9 12.3q0 7.05 1.8 10.5c1 1.9 2.9 4.9 4.1 6.5 1.2 1.7 4.7 4.4 7.6 6 4.5 2.4 6.5 2.9 12.4 2.9 5.8 0 7.9-.5 12.3-2.9 3-1.6 6.6-4.5 8.1-6.4 1.5-2 3.2-4.8 3.8-6.2.6-1.5 1.4-4.7 1.8-7.2.4-2.7.2-6.7-.5-9.7s-2.8-7.1-5-9.9c-2.3-2.8-5.7-5.7-8.4-6.9-2.5-1.2-6.9-2.4-9.8-2.6"/></g><path fill="#fff" fill-opacity=".8" d="M2485.5 167.2c-.3-.3-.5 30.9-.5 69.3s.2 69.6.5 69.3.5-31.5.5-69.3c0-37.9-.2-69.1-.5-69.3m-1666.8 52c-.2-1.5-.4-.2-.4 2.8s.2 4.3.4 2.7c.2-1.5.2-3.9 0-5.5m1125 0c-.2-1.5-.4-.2-.4 2.8s.2 4.3.4 2.7c.2-1.5.2-3.9 0-5.5m268 0c-.2-1.5-.4-.2-.4 2.8s.2 4.3.4 2.7c.2-1.5.2-3.9 0-5.5m218 0c-.2-1.5-.4-.2-.4 2.8s.2 4.3.4 2.7c.2-1.5.2-3.9 0-5.5m-3 9.8c-.2 0-1.4 1.2-2.8 2.7l-2.4 2.8 2.8-2.4c1.5-1.4 2.7-2.6 2.7-2.8q0-.3-.3-.3m1204.7 37.1c-1.1 0-1.4.3-.6.6.7.3 1.6.2 1.9-.1.4-.3-.2-.6-1.3-.5m-1110.7 9.1c-.2-2-.4-.3-.4 3.8s.2 5.8.4 3.7c.2-2 .2-5.4 0-7.5m1106.3 22c-1.9 0-2.7.2-1.7.5.9.2 2.5.2 3.5 0 .9-.3.1-.5-1.8-.5M2924.4 309c-.2 0-.4.2-.4.4s.8 1 1.8 1.7c1.5 1.3 1.6 1.2.3-.4-.7-.9-1.5-1.7-1.7-1.7m-403.7 99.3c-.1-34-.2-6.5-.2 61.2 0 67.6.1 95.5.2 61.8.2-33.6.2-89 0-123m-35 9.9c-.1-38.3-.2-6.7-.2 70.3s.1 108.4.2 69.7c.2-38.7.2-101.7 0-140m-330 77.6c-.1-24.4-.2-4.7-.2 43.7s.1 68.3.2 44.3c.2-24 .2-63.6 0-88m-1385-9.1c-.1-18.8-.2-3.2-.2 34.8 0 37.9.1 53.3.2 34.2.2-19.2.2-50.2 0-69m1593-26.7c-.2 0-1.2 1-2.3 2.2l-1.9 2.3 2.3-1.9c1.2-1.1 2.2-2.1 2.2-2.3 0-.1-.2-.3-.3-.3m835.9 24c-.2 0-1 .8-1.7 1.7-1.3 1.6-1.2 1.7.4.4.9-.7 1.7-1.5 1.7-1.7s-.2-.4-.4-.4m446 .3c-.3-.4-.6.2-.5 1.3 0 1.1.3 1.4.6.6.3-.7.2-1.6-.1-1.9m-234 28.7c-.2 0-1 .8-1.7 1.7-1.3 1.6-1.2 1.7.4.4.9-.7 1.7-1.5 1.7-1.7s-.2-.4-.4-.4m-2174.9 3c-.2 0-1.4 1.2-2.8 2.7l-2.4 2.8 2.8-2.4c1.5-1.4 2.7-2.6 2.7-2.8q0-.3-.3-.3m-300 17.2c-.3-.9-.5.1-.4 2.3 0 2.2.2 3 .4 1.7.2-1.2.2-3 0-4m1331 25c-.2-1.5-.4-.2-.4 2.8s.2 4.3.4 2.7c.2-1.5.2-3.9 0-5.5m35 15.5c-.1-10-.2-1.6-.2 18.8 0 20.3.1 28.5.2 18.2.2-10.4.2-27 0-37m36 0c-.1-10-.2-1.6-.2 18.8 0 20.3.1 28.5.2 18.2.2-10.4.2-27 0-37m35-15c-.2-1.2-.4 0-.4 2.8 0 2.7.2 3.8.4 2.2.2-1.5.2-3.7 0-5m-359 24c-.3-.6-.5.1-.5 1.8 0 1.6.2 2.2.5 1.2.2-.9.2-2.3 0-3m-1385.1 1.6c-.3-.4-.6.2-.5 1.3 0 1.1.3 1.4.6.6.3-.7.2-1.6-.1-1.9m2243 1c-.3-.4-.6.2-.5 1.3 0 1.1.3 1.4.6.6.3-.7.2-1.6-.1-1.9m-35 5c-.3-.4-.6.2-.5 1.3 0 1.1.3 1.4.6.6.3-.7.2-1.6-.1-1.9m-1146.9 18.4c-.1-9.4-.3-1.7-.3 17.3s.2 26.7.3 17.2c.2-9.4.2-25 0-34.5m-790-7.5c-.1-4.8-.3-.6-.3 9.3s.2 13.8.3 8.7c.2-5.1.2-13.2 0-18m2097 0c-.1-4.8-.3-.6-.3 9.3s.2 13.8.3 8.7c.2-5.1.2-13.2 0-18m542 0c-.1-4.8-.3-.6-.3 9.3s.2 13.8.3 8.7c.2-5.1.2-13.2 0-18m-2747 .5c-.1-4.5-.3-.8-.3 8.3s.2 12.8.3 8.2c.2-4.5.2-11.9 0-16.5m314.9 56.3c-.2 0-1 .8-1.7 1.7-1.3 1.6-1.2 1.7.4.4.9-.7 1.7-1.5 1.7-1.7s-.2-.4-.4-.4m-444 6.3c-.3-.4-.6.2-.5 1.3 0 1.1.3 1.4.6.6.3-.7.2-1.6-.1-1.9m964.8 34.8c-1.1 0-1.4.3-.6.6.7.3 1.6.2 1.9-.1.4-.3-.2-.6-1.3-.5m662.3 53.3c-.3-3.8-.4-3.7-.5.8l-.2 4.7-4.2.4-4.3.4 4.3.1q4.2.15 4.8-1.2c.3-.8.4-3.1.1-5.2m66.8 6c-6.6 0-9.2.1-5.7.3 3.4.2 8.8.2 12 0 3.1-.2.3-.3-6.3-.3m-44 24.1c-24.2 0-34 .1-21.7.2 12.3.2 32.1.2 44 0 11.9-.1 1.9-.2-22.3-.2"/><path fill="#fff" fill-opacity=".89" d="M2214.4 229c-.2 0-.4.2-.4.4s.8 1 1.8 1.7c1.5 1.3 1.6 1.2.3-.4-.7-.9-1.5-1.7-1.7-1.7m-1392 1c-.2 0-.4.2-.4.4s.8 1 1.8 1.7c1.5 1.3 1.6 1.2.3-.4-.7-.9-1.5-1.7-1.7-1.7m1116.2 1c-.2 0-1 .8-1.7 1.7-1.3 1.6-1.2 1.7.4.4.9-.7 1.7-1.5 1.7-1.7s-.2-.4-.4-.4m612.8 97c-.2 0-.4.2-.4.4s.8 1 1.8 1.7c1.5 1.3 1.6 1.2.3-.4-.7-.9-1.5-1.7-1.7-1.7m-272.8 38c-.2 0-1 .8-1.7 1.7-1.3 1.6-1.2 1.7.4.4.9-.7 1.7-1.5 1.7-1.7s-.2-.4-.4-.4m-1139 48c-.2 0-1 .8-1.7 1.7-1.3 1.6-1.2 1.7.4.4.9-.7 1.7-1.5 1.7-1.7s-.2-.4-.4-.4m9.1 44.8c-.1-24.4-.2-4.7-.2 43.7s.1 68.3.2 44.3c.2-24 .2-63.6 0-88M3250.4 427c-.2 0-.4.2-.4.4s.8 1 1.8 1.7c1.5 1.3 1.6 1.2.3-.4-.7-.9-1.5-1.7-1.7-1.7m-219.2 13c-.3 0 .3.9 1.3 2s2 2 2.3 2-.3-.9-1.3-2-2-2-2.3-2m-1915.6 8c-.2 0-1 .8-1.7 1.7-1.3 1.6-1.2 1.7.4.4.9-.7 1.7-1.5 1.7-1.7s-.2-.4-.4-.4m2183.8 22c-.2 0-.4.2-.4.4s.8 1 1.8 1.7c1.5 1.3 1.6 1.2.3-.4-.7-.9-1.5-1.7-1.7-1.7m-33 13c-.2 0-.4.2-.4.4s.8 1 1.8 1.7c1.5 1.3 1.6 1.2.3-.4-.7-.9-1.5-1.7-1.7-1.7m-2152.8 26.3c-.3-.4-.6.2-.5 1.3 0 1.1.3 1.4.6.6.3-.7.2-1.6-.1-1.9m200.1 22.9c-.1-10.8-.2-1.7-.2 20.3s.1 30.9.2 19.7c.2-11.2.2-29.2 0-40m-355-16.2c-.2 0-1.2 1-2.3 2.2l-1.9 2.3 2.3-1.9c1.2-1.1 2.2-2.1 2.2-2.3 0-.1-.2-.3-.3-.3m2450 0c-.2 0-1.2 1-2.3 2.2l-1.9 2.3 2.3-1.9c1.2-1.1 2.2-2.1 2.2-2.3 0-.1-.2-.3-.3-.3m-1690.1 2c-.2 0-1 .8-1.7 1.7-1.3 1.6-1.2 1.7.4.4.9-.7 1.7-1.5 1.7-1.7s-.2-.4-.4-.4m-1030 17c-.2 0-1 .8-1.7 1.7-1.3 1.6-1.2 1.7.4.4.9-.7 1.7-1.5 1.7-1.7s-.2-.4-.4-.4m249.6 7c-.3 0 .5 1.1 1.8 2.5s2.6 2.5 2.8 2.5c.3 0-.5-1.1-1.8-2.5s-2.6-2.5-2.8-2.5m2442.4 28.3c-.3-.4-.6.2-.5 1.3 0 1.1.3 1.4.6.6.3-.7.2-1.6-.1-1.9m-1689 9c-.3-.4-.6.2-.5 1.3 0 1.1.3 1.4.6.6.3-.7.2-1.6-.1-1.9m-733.9 7.4c-.3-.6-.5.1-.5 1.8 0 1.6.2 2.2.5 1.2.2-.9.2-2.3 0-3m1056.9.6c-.3-.4-.6.2-.5 1.3 0 1.1.3 1.4.6.6.3-.7.2-1.6-.1-1.9m-35.9 13.9c-.1-4.8-.3-.6-.3 9.3s.2 13.8.3 8.7c.2-5.1.2-13.2 0-18m1130 1c-.1-4.2-.3-.5-.3 8.3s.2 12.3.3 7.7c.2-4.6.2-11.8 0-16m234 .5c-.1-4.5-.3-.8-.3 8.3s.2 12.8.3 8.2c.2-4.5.2-11.9 0-16.5m-1617 31c-.2-2.8-.3-.5-.3 5.3s.1 8.1.3 5.2c.2-2.8.2-7.6 0-10.5m-577-2.5c-.3-.9-.5-.1-.5 1.8s.2 2.7.5 1.7c.2-.9.2-2.5 0-3.5m-105.1 4.1c-.3-.4-.6.2-.5 1.3 0 1.1.3 1.4.6.6.3-.7.2-1.6-.1-1.9m-379.9 23.9c-.3-.9-.5-.1-.5 1.8s.2 2.7.5 1.7c.2-.9.2-2.5 0-3.5m1027 1.5c-.3-.6-.5-.1-.5 1.3s.2 1.9.5 1.2c.2-.6.2-1.8 0-2.5M1133.6 684c-.2 0-1 .8-1.7 1.7-1.3 1.6-1.2 1.7.4.4.9-.7 1.7-1.5 1.7-1.7s-.2-.4-.4-.4m-40.6 14.3c-2.5 0-3.5.2-2.2.4 1.2.2 3.2.2 4.5 0 1.2-.2.2-.4-2.3-.4m565.5 19.9c-1.6 0-2.2.2-1.2.5.9.2 2.3.2 3 0 .6-.3-.1-.5-1.8-.5"/><path fill="#fff" fill-opacity=".69" d="M3634.4 266.1c-1.1 0-1.4.3-.6.6.7.3 1.6.2 1.9-.1.4-.3-.2-.6-1.3-.5m-1683 37.9c-.2 0-.4.2-.4.4s.8 1 1.8 1.7c1.5 1.3 1.6 1.2.3-.4-.7-.9-1.5-1.7-1.7-1.7m976 8c-.2 0-.4.2-.4.4s.8 1 1.8 1.7c1.5 1.3 1.6 1.2.3-.4-.7-.9-1.5-1.7-1.7-1.7m-659.8 99.3c-.3-.4-.6.2-.5 1.3 0 1.1.3 1.4.6.6.3-.7.2-1.6-.1-1.9m106 3c-.3-.4-.6.2-.5 1.3 0 1.1.3 1.4.6.6.3-.7.2-1.6-.1-1.9m850 5.7c-.2 0-1 .8-1.7 1.7-1.3 1.6-1.2 1.7.4.4.9-.7 1.7-1.5 1.7-1.7s-.2-.4-.4-.4m-956 62.3c-.3-.4-.6.2-.5 1.3 0 1.1.3 1.4.6.6.3-.7.2-1.6-.1-1.9m-1225 2.7c-.2 0-1 .8-1.7 1.7-1.3 1.6-1.2 1.7.4.4.9-.7 1.7-1.5 1.7-1.7s-.2-.4-.4-.4m1331 .3c-.3-.4-.6.2-.5 1.3 0 1.1.3 1.4.6.6.3-.7.2-1.6-.1-1.9m823.1 1.7c-.2 0-1.2 1-2.3 2.2l-1.9 2.3 2.3-1.9c1.2-1.1 2.2-2.1 2.2-2.3 0-.1-.2-.3-.3-.3m-1471.1 24c-.2 0-1 .8-1.7 1.7-1.3 1.6-1.2 1.7.4.4.9-.7 1.7-1.5 1.7-1.7s-.2-.4-.4-.4m-486 2c-.2 0-1 .8-1.7 1.7-1.3 1.6-1.2 1.7.4.4.9-.7 1.7-1.5 1.7-1.7s-.2-.4-.4-.4m23 26c-.2 0-1 .8-1.7 1.7-1.3 1.6-1.2 1.7.4.4.9-.7 1.7-1.5 1.7-1.7s-.2-.4-.4-.4m1005 14.3c-.3-.4-.6.2-.5 1.3 0 1.1.3 1.4.6.6.3-.7.2-1.6-.1-1.9m-253 26c-.3-.4-.6.2-.5 1.3 0 1.1.3 1.4.6.6.3-.7.2-1.6-.1-1.9m-324 10c-.3-.4-.6.2-.5 1.3 0 1.1.3 1.4.6.6.3-.7.2-1.6-.1-1.9m-541.9 49.4c-.3-.6-.5.1-.5 1.8 0 1.6.2 2.2.5 1.2.2-.9.2-2.3 0-3m577 12c-.3-.6-.5-.1-.5 1.3s.2 1.9.5 1.2c.2-.6.2-1.8 0-2.5"/><path fill="#fff" fill-opacity=".6" d="M2407.4 202c-.2 0-.4.2-.4.4s.8 1 1.8 1.7c1.5 1.3 1.6 1.2.3-.4-.7-.9-1.5-1.7-1.7-1.7m1230 64.1c-1.1 0-1.4.3-.6.6.7.3 1.6.2 1.9-.1.4-.3-.2-.6-1.3-.5M3513 450.3c-3.6 0-5 .2-3.2.4 1.7.2 4.7.2 6.5 0 1.7-.2.3-.4-3.3-.4M1810.6 462c-.2 0-1 .8-1.7 1.7-1.3 1.6-1.2 1.7.4.4.9-.7 1.7-1.5 1.7-1.7s-.2-.4-.4-.4m-716.9 3.7c-.2-1.2-.4-.2-.4 2.3s.2 3.5.4 2.2c.2-1.2.2-3.2 0-4.5m1820.9 7.3c-.2 0-1 .8-1.7 1.7-1.3 1.6-1.2 1.7.4.4.9-.7 1.7-1.5 1.7-1.7s-.2-.4-.4-.4m696 7.3c-.3-.4-.6.2-.5 1.3 0 1.1.3 1.4.6.6.3-.7.2-1.6-.1-1.9m-2587.9 20.4c-.2-1.2-.4-.2-.4 2.3s.2 3.5.4 2.2c.2-1.2.2-3.2 0-4.5m1098 32c-.1-10.6-.2-1.7-.2 19.8 0 21.4.1 30.1.2 19.2.2-10.9.2-28.5 0-39m-78.1-15.7c-.2 0-1 .8-1.7 1.7-1.3 1.6-1.2 1.7.4.4.9-.7 1.7-1.5 1.7-1.7s-.2-.4-.4-.4m795 68.3c-.3-.4-.6.2-.5 1.3 0 1.1.3 1.4.6.6.3-.7.2-1.6-.1-1.9M1188 592.4c-9.6 0-13.6.2-8.7.3 4.8.2 12.6.2 17.5 0 4.8-.1.8-.3-8.8-.3m89.5.1c-19.2-.1-27.3.1-17.8.2 9.4.2 25.2.2 35 0 9.8-.1 2.1-.2-17.2-.2m718.5-.1c-9.6 0-13.6.2-8.7.3 4.8.2 12.6.2 17.5 0 4.8-.1.8-.3-8.8-.3m88.5.1c-19.2-.1-27.3.1-17.8.2 9.4.2 25.2.2 35 0 9.8-.1 2.1-.2-17.2-.2m1679.9-.4c-1.1 0-1.4.3-.6.6.7.3 1.6.2 1.9-.1.4-.3-.2-.6-1.3-.5m-2720.8 47.2c-.3-.4-.6.2-.5 1.3 0 1.1.3 1.4.6.6.3-.7.2-1.6-.1-1.9m682 15c-.3-.4-.6.2-.5 1.3 0 1.1.3 1.4.6.6.3-.7.2-1.6-.1-1.9M560 734.5c-19.5 0-27.5.1-17.7.2 9.7.2 25.7.2 35.5 0 9.7-.1 1.7-.2-17.8-.2m1061.5 0c-19.8 0-27.8.1-17.7.2 10.1.2 26.3.2 36 0 9.7-.1 1.5-.2-18.3-.2"/></svg>